<svg width="31" height="30" viewBox="0 0 31 30" xmlns="http://www.w3.org/2000/svg">
<g clip-path="url(#clip0_851_4288)">
<path d="M15.0401 7.34923C10.7906 7.34923 7.36302 10.7768 7.36302 15.0263C7.36302 19.2757 10.7906 22.7033 15.0401 22.7033C19.2895 22.7033 22.7171 19.2757 22.7171 15.0263C22.7171 10.7768 19.2895 7.34923 15.0401 7.34923ZM15.0401 20.0174C12.294 20.0174 10.049 17.7791 10.049 15.0263C10.049 12.2735 12.2873 10.0352 15.0401 10.0352C17.7929 10.0352 20.0312 12.2735 20.0312 15.0263C20.0312 17.7791 17.7862 20.0174 15.0401 20.0174V20.0174ZM24.8218 7.0352C24.8218 8.03075 24.02 8.82585 23.0312 8.82585C22.0356 8.82585 21.2405 8.02406 21.2405 7.0352C21.2405 6.04634 22.0423 5.24455 23.0312 5.24455C24.02 5.24455 24.8218 6.04634 24.8218 7.0352ZM29.9065 8.85257C29.7929 6.45391 29.245 4.32919 27.4877 2.57863C25.7372 0.828073 23.6125 0.280189 21.2138 0.159921C18.7416 0.0196096 11.3318 0.0196096 8.85968 0.159921C6.4677 0.273507 4.34298 0.821391 2.58574 2.57195C0.828502 4.3225 0.287299 6.44723 0.167032 8.84589C0.0267201 11.3181 0.0267201 18.7278 0.167032 21.2C0.280618 23.5987 0.828502 25.7234 2.58574 27.474C4.34298 29.2245 6.46102 29.7724 8.85968 29.8927C11.3318 30.033 18.7416 30.033 21.2138 29.8927C23.6125 29.7791 25.7372 29.2312 27.4877 27.474C29.2383 25.7234 29.7862 23.5987 29.9065 21.2C30.0468 18.7278 30.0468 11.3247 29.9065 8.85257V8.85257ZM26.7127 23.8526C26.1915 25.1621 25.1826 26.1711 23.8664 26.6989C21.8953 27.4806 17.2183 27.3002 15.0401 27.3002C12.8619 27.3002 8.17817 27.474 6.2138 26.6989C4.90423 26.1777 3.89532 25.1688 3.36748 23.8526C2.58574 21.8815 2.76614 17.2045 2.76614 15.0263C2.76614 12.8481 2.59242 8.16438 3.36748 6.20001C3.88864 4.89043 4.89754 3.88152 6.2138 3.35369C8.18485 2.57195 12.8619 2.75235 15.0401 2.75235C17.2183 2.75235 21.902 2.57863 23.8664 3.35369C25.1759 3.87484 26.1848 4.88375 26.7127 6.20001C27.4944 8.17106 27.314 12.8481 27.314 15.0263C27.314 17.2045 27.4944 21.8882 26.7127 23.8526Z" />
</g>
<defs>
<clipPath id="clip0_851_4288">
<rect width="30.0668" height="30" />
</clipPath>
</defs>
</svg>
