<svg width="21" height="21" viewBox="0 0 21 21" xmlns="http://www.w3.org/2000/svg">
<path d="M17.7969 4.99609L15.7168 2.91797C15.5701 2.77059 15.3957 2.65366 15.2036 2.57389C15.0115 2.49412 14.8056 2.45308 14.5977 2.45313C14.1738 2.45313 13.7754 2.61914 13.4766 2.91797L11.2383 5.15625C11.0909 5.30298 10.974 5.47738 10.8942 5.66944C10.8144 5.8615 10.7734 6.06743 10.7734 6.27539C10.7734 6.69922 10.9395 7.09766 11.2383 7.39648L12.875 9.0332C12.4919 9.87766 11.9592 10.6459 11.3027 11.3008C10.6479 11.9589 9.87974 12.4935 9.03516 12.8789L7.39844 11.2422C7.25171 11.0948 7.0773 10.9779 6.88525 10.8981C6.69319 10.8183 6.48726 10.7773 6.2793 10.7773C5.85547 10.7773 5.45703 10.9434 5.1582 11.2422L2.91797 13.4785C2.77041 13.6255 2.65338 13.8002 2.5736 13.9926C2.49383 14.185 2.45288 14.3913 2.45313 14.5996C2.45313 15.0234 2.61914 15.4219 2.91797 15.7207L4.99414 17.7969C5.4707 18.2754 6.12891 18.5469 6.80469 18.5469C6.94727 18.5469 7.08399 18.5352 7.21875 18.5117C9.85156 18.0781 12.4629 16.6777 14.5703 14.5723C16.6758 12.4688 18.0742 9.85937 18.5137 7.21875C18.6465 6.41211 18.3789 5.58203 17.7969 4.99609V4.99609Z"/>
</svg>
