<svg width="31" height="30" viewBox="0 0 31 30" xmlns="http://www.w3.org/2000/svg">
<g clip-path="url(#clip0_851_4290)">
<path d="M25.5735 4.35937C22.7677 1.54687 19.0311 0 15.0601 0C6.86371 0 0.194066 6.66964 0.194066 14.8661C0.194066 17.4844 0.877101 20.0424 2.17621 22.2991L0.0668335 30L7.94853 27.9308C10.1182 29.1161 12.5624 29.7388 15.0534 29.7388H15.0601C23.2499 29.7388 30.0668 23.0692 30.0668 14.8728C30.0668 10.9018 28.3793 7.17187 25.5735 4.35937V4.35937ZM15.0601 27.2344C12.8369 27.2344 10.6606 26.6384 8.76549 25.5134L8.31683 25.2455L3.64273 26.471L4.88826 21.9107L4.59362 21.442C3.35478 19.4732 2.70523 17.2031 2.70523 14.8661C2.70523 8.0558 8.24987 2.51116 15.0668 2.51116C18.3682 2.51116 21.4686 3.79687 23.799 6.13393C26.1293 8.47098 27.5624 11.5714 27.5557 14.8728C27.5557 21.6897 21.8704 27.2344 15.0601 27.2344V27.2344ZM21.8369 17.9799C21.4686 17.7924 19.6405 16.8951 19.299 16.7746C18.9575 16.6473 18.7097 16.5871 18.4619 16.9621C18.2142 17.3371 17.5043 18.1674 17.2834 18.4219C17.0691 18.6696 16.8481 18.7031 16.4798 18.5156C14.2967 17.4241 12.8637 16.567 11.424 14.096C11.0423 13.4397 11.8057 13.4866 12.5155 12.067C12.636 11.8192 12.5758 11.6049 12.482 11.4174C12.3883 11.2299 11.645 9.40179 11.3369 8.65848C11.0356 7.93527 10.7275 8.03571 10.4999 8.02232C10.2856 8.00893 10.0378 8.00893 9.79005 8.00893C9.54228 8.00893 9.14049 8.10268 8.79898 8.47098C8.45746 8.84598 7.49987 9.7433 7.49987 11.5714C7.49987 13.3996 8.83246 15.1674 9.01326 15.4152C9.20076 15.6629 11.6316 19.4129 15.3615 21.0268C17.7186 22.0446 18.6427 22.1317 19.8213 21.9576C20.5378 21.8504 22.0177 21.0603 22.3258 20.1897C22.6338 19.3192 22.6338 18.5759 22.54 18.4219C22.453 18.2545 22.2052 18.1607 21.8369 17.9799Z" fill="white"/>
</g>
<defs>
<clipPath id="clip0_851_4290">
<rect width="30" height="30" transform="translate(0.0668335)"/>
</clipPath>
</defs>
</svg>
